Simulation
nRows=37
nColumns=15
endheader
time  TH_x TH_y TH_z SC_y  SC_z  SC_x  AC_y  AC_z  AC_x  GH_y  GH_z  GH_yy  EL_x  PS_y
1.55  0.000000  0.000000  0.000000  -43.500716460500186  10.594299422846527  4.414638378802601  56.05491203261068  11.835031546042538  6.238870412016787  -14.689361585961217  70.83353314861553  6.267897045979919  6.867440799818445  120.000000
1.581  0.000000  0.000000  0.000000  -43.51692605241426  10.531194705242738  4.110854608607489  56.068351736776734  12.062788049613879  6.368857374238142  -14.84785923521644  71.26622497283063  6.234431681927797  6.978505554835501  120.000000
1.612  0.000000  0.000000  0.000000  -43.53273845626621  10.481631590059818  3.8199133034151473  56.076347817539855  12.264144044445931  6.495995234914641  -15.003651685406325  71.60896257567734  6.265021103132364  7.087471193299347  120.000000
1.643  0.000000  0.000000  0.000000  -43.54924477058626  10.444559690552246  3.5464202412139896  56.07907855063808  12.443322231890386  6.619026720476613  -15.154478952313841  71.8693916565534  6.341912004493504  7.186685639895299  120.000000
1.674  0.000000  0.000000  0.000000  -43.56761411803008  10.419097615064224  3.2944950926645618  56.07610148589282  12.604390601574801  6.736562062369393  -15.298156188272413  72.05571649093041  6.449133907665752  7.269443729325275  120.000000
1.705  0.000000  0.000000  0.000000  -43.58890298868262  10.404688820391259  3.0674374318654896  56.066422498141804  12.750705886872261  6.847216596116729  -15.432173429914432  72.17639329183254  6.573865670553418  7.330117747531342  120.000000
1.736  0.000000  0.000000  0.000000  -43.61383924219102  10.400925868609086  2.8678221142404374  56.048782819258946  12.884766317556537  6.949614924303198  -15.553577398457959  72.23956429714119  6.706627447838619  7.364599889760173  120.000000
1.767  0.000000  0.000000  0.000000  -43.64261151243338  10.407614211341194  2.6975596818924177  56.02197472669826  13.008161075941407  7.042579966923708  -15.658977548428565  72.25234687432628  6.840896531668565  7.370629187607881  120.000000
1.798  0.000000  0.000000  0.000000  -43.67472034006586  10.424527676648426  2.55823948131203  55.9852284088417  13.12178630638314  7.125184024236966  -15.744742199878765  72.22002791425923  6.972107538226964  7.348284337793805  120.000000
1.829  0.000000  0.000000  0.000000  -43.70885884989559  10.451518712529847  2.4511831533982025  55.93843424022343  13.22586898840735  7.196874653069275  -15.807177450720713  72.14531944958394  7.096950055745208  7.300130704417814  120.000000
1.8599999999999999  0.000000  0.000000  0.000000  -43.742923993477206  10.488326448595162  2.3775744704595443  55.882285291494675  13.320037688946767  7.257475503230849  -15.842681848870676  72.02775766393502  7.212828980859039  7.231225424790925  120.000000
1.891  0.000000  0.000000  0.000000  -43.7740794144669  10.534807858802475  2.338137169025799  55.81819817759104  13.403041227129485  7.307210848912406  -15.847762147023522  71.86330609569616  7.318092916192493  7.148601614675063  120.000000
1.922  0.000000  0.000000  0.000000  -43.799012138506946  10.590816207484178  2.3329100650071677  55.74819454027649  13.472538832144055  7.346630192645133  -15.818987117787405  71.6441903339143  7.412391159511502  7.06061395227185  120.000000
1.953  0.000000  0.000000  0.000000  -43.81426144818988  10.656489318935105  2.360707638448154  55.674631719559564  13.524703376304783  7.376594274047467  -15.752900991260182  71.35891784506379  7.497347044714131  6.976058914063357  120.000000
1.984  0.000000  0.000000  0.000000  -43.81678042835841  10.732143541187734  2.4189162897187955  55.600059931061324  13.55415898603846  7.398107061666426  -15.646059310690637  70.99246510846592  7.57662747820409  6.903532539387596  120.000000
2.015  0.000000  0.000000  0.000000  -43.80443603697749  10.818503240209285  2.5032957065243724  55.526851876435565  13.55405407253927  7.412386866170871  -15.495209407984046  70.5265935247211  7.655656254347284  6.850980870480572  120.000000
2.046  0.000000  0.000000  0.000000  -43.77661041254356  10.916620470764116  2.6081895381716675  55.45706573414733  13.516656746776595  7.420550569014725  -15.297732158533318  69.94025568772524  7.740369407527448  6.825692076450282  120.000000
2.077  0.000000  0.000000  0.000000  -43.73432628139867  11.028010035999182  2.7269487526324627  55.39149743349843  13.434250602522244  7.424018954621338  -15.052223277066481  69.21026752825048  7.83580027858595  6.834443041704312  120.000000
2.108  0.000000  0.000000  0.000000  -43.67894698645165  11.154819903986201  2.85280053732266  55.32959420214495  13.30080397100377  7.424614813977852  -14.758072459532938  68.3123924495058  7.944181723930932  6.884232317543346  120.000000
2.139  0.000000  0.000000  0.000000  -43.610506687118885  11.30003510920345  2.9802485591974475  55.26951649092751  13.113075622756783  7.424972540903559  -14.414006015669901  67.22292089102986  8.063498817199221  6.982873563845956  120.000000
2.17  0.000000  0.000000  0.000000  -43.52859381202886  11.466932728251088  3.1058156790920917  55.207522643972446  12.871503929058749  7.427909554832532  -14.018379806110628  65.92026142769309  8.187447783252658  7.138589618963959  120.000000
2.201  0.000000  0.000000  0.000000  -43.4341896741045  11.658503917271247  3.2265299775028002  55.138089760971965  12.580145987174188  7.4353547395582  -13.570414198313347  64.38584309540373  8.307581345163404  7.358010754490555  120.000000
2.232  0.000000  0.000000  0.000000  -43.329945812385056  11.876317890620681  3.3401756846448  55.05499446784567  12.24562562113615  7.4473974717885225  -13.069465841500763  62.605439675687414  8.416063913669184  7.644540936695422  120.000000
2.263  0.000000  0.000000  0.000000  -43.2186938264759  12.120458761750585  3.4477800055374686  54.9518332533294  11.874833643270604  7.461618726990696  -12.513453710049825  60.57117512168124  8.508567151410075  7.996035353517353  120.000000
2.294  0.000000  0.000000  0.000000  -43.102517392907856  12.39025114742364  3.553658549300335  54.82208503034075  11.474037088087792  7.472854688065397  -11.898111982288084  58.28298853000514  8.587275705004403  8.4030999712479  120.000000
2.325  0.000000  0.000000  0.000000  -42.982287758160474  12.68462976139709  3.6631105404786455  54.6590839473871  11.050115454607427  7.4754051683126965  -11.216685414307246  55.75004513593839  8.662878008904272  8.848053893896905  120.000000
2.356  0.000000  0.000000  0.000000  -42.85771161059435  13.002246019918493  3.780774093327497  54.45662081393046  10.60980341940969  7.463615760783053  -10.460844576190954  52.990422169230165  8.755502240136993  9.306178393267805  120.000000
2.387  0.000000  0.000000  0.000000  -42.72793778942597  13.341571201030778  3.9089979287699794  54.21013980129863  10.15861234581251  7.432273105560695  -9.621973183269521  50.03009593571365  8.89401126257137  9.748578606683454  120.000000
2.418  0.000000  0.000000  0.000000  -42.59090846214342  13.70076934092927  4.048758580760462  53.91767058651748  9.70053719087944  7.377060413639918  -8.692487367463384  46.90217009226348  9.114027899452948  10.147176179993522  120.000000
2.449  0.000000  0.000000  0.000000  -42.443732578387454  14.077282845953563  4.200517418667329  53.58078451344952  9.238644443186903  7.29627420744102  -7.667470378597623  43.64577855370158  9.454908321839893  10.479858617923224  120.000000
2.48  0.000000  0.000000  0.000000  -42.2829575034259  14.468587728747028  4.364415084390342  53.20509196798757  8.775124197906605  7.190596095288859  -6.547378544677425  40.30359262186588  9.956965219094768  10.734732296995476  120.000000
2.511  0.000000  0.000000  0.000000  -42.10592595207006  14.871540716004343  4.540837598282667  52.7996153526252  8.311430609791643  7.063204541496503  -5.3403707213572735  36.91970542048375  10.658803206153912  10.911712724208552  120.000000
2.542  0.000000  0.000000  0.000000  -41.91102552556268  15.283205226185  4.731212546220174  52.37621120528966  7.847998126798765  6.918200840712937  -4.063879809412317  33.5370608065272  11.595388579074914  11.022478923697713  120.000000
2.573  0.000000  0.000000  0.000000  -41.69760645235802  15.699777085127064  4.937489378258738  51.94787899773945  7.386262526434897  6.760878469281399  -2.7456880357686244  30.195952086865812  12.796673406421597  11.087436464314283  120.000000
2.604  0.000000  0.000000  0.000000  -41.4658080969896  16.11665257772126  5.162216158985708  51.527470302580184  6.929310912734577  6.596992377404823  -1.424474228273188  26.93220045463526  14.287377835481594  11.132971630666505  120.000000
2.635  0.000000  0.000000  0.000000  -41.21642895691658  16.527943332243854  5.408405788266067  51.12634256415556  6.482282087462511  6.43131567205764  -0.15109454020778143  23.77597362846007  16.08819131877986  11.187004085457255  120.000000
2.666  0.000000  0.000000  0.000000  -40.95119226856642  16.926797710829977  5.6789991111184435  50.75335653204757  6.05254415092145  6.267071734928085  1.0104588898595872  20.750844598977796  18.21851100415125  11.276743605450303  120.000000
